<mxfile host="app.diagrams.net" modified="2023-12-13T01:48:39.909Z" agent="Mozilla/5.0 (Macintosh; Intel Mac OS X 10_15_7) AppleWebKit/537.36 (KHTML, like Gecko) Chrome/120.0.0.0 Safari/537.36" version="22.1.8" etag="0Wn3bFox3WXPQpJzNOz9" type="github">
  <diagram name="Page-1" id="cre3uyOTANuKInYDkwjJ">
    <mxGraphModel>
      <root>
        <mxCell id="0" />
        <mxCell id="1" parent="0" />
      </root>
    </mxGraphModel>
  </diagram>
</mxfile>
